<svg width="32" height="26" viewBox="0 0 32 26" fill="none" xmlns="http://www.w3.org/2000/svg">
<path d="M14.8854 3.875L9.41038 14.075L5.96038 15.05C6.36038 14.3 6.81038 13.7 7.31038 13.25C7.81038 12.75 8.38538 12.5 9.03538 12.5C10.4854 12.5 11.7854 13.1 12.9354 14.3C14.1354 15.45 14.7354 16.95 14.7354 18.8C14.7354 20.75 14.0604 22.425 12.7104 23.825C11.4104 25.225 9.78538 25.925 7.83538 25.925C5.98538 25.925 4.36038 25.25 2.96038 23.9C1.61038 22.5 0.935381 20.8 0.935381 18.8C0.935381 18 1.08538 17.075 1.38538 16.025C1.73538 14.975 2.36038 13.6 3.26038 11.9L9.26038 0.799995L14.8854 3.875ZM31.7604 3.875L26.2854 14.075L22.9104 15.05C23.2604 14.3 23.6854 13.7 24.1854 13.25C24.7354 12.75 25.3104 12.5 25.9104 12.5C27.3604 12.5 28.6854 13.1 29.8854 14.3C31.0854 15.45 31.6854 16.95 31.6854 18.8C31.6854 20.75 31.0104 22.425 29.6604 23.825C28.3604 25.225 26.7354 25.925 24.7854 25.925C22.9354 25.925 21.3104 25.25 19.9104 23.9C18.5604 22.5 17.8854 20.8 17.8854 18.8C17.8854 18 18.0354 17.075 18.3354 16.025C18.6354 14.975 19.2354 13.6 20.1354 11.9L26.2104 0.799995L31.7604 3.875Z" fill="#D1B06B"/>
</svg>
