<svg width="60" height="43" viewBox="0 0 60 43" fill="none" xmlns="http://www.w3.org/2000/svg">
<path d="M55.1475 36.6155C57.0038 36.6155 58.3573 34.7201 57.9165 32.7612C56.3253 25.703 50.4567 20.4617 43.4618 20.4617C36.4669 20.4617 30.5948 25.703 29.0071 32.7649C28.5663 34.7239 29.9198 36.6155 31.7762 36.6155H55.1475Z" fill="#1F2732" stroke="#D1B06B" stroke-width="3" stroke-miterlimit="10"/>
<path d="M28.2241 36.6155C30.0805 36.6155 31.434 34.7201 30.9931 32.7612C29.402 25.703 23.5333 20.4617 16.5385 20.4617C9.5436 20.4617 3.6715 25.703 2.0838 32.7649C1.64296 34.7239 2.99647 36.6155 4.85281 36.6155H28.2241Z" fill="#1F2732" stroke="#D1B06B" stroke-width="3" stroke-miterlimit="10"/>
<path d="M38.6562 40.9231C40.0313 40.9231 41.0339 39.5331 40.7073 38.0965C39.5287 32.9205 35.1816 29.0769 30.0002 29.0769C24.8188 29.0769 20.4691 32.9205 19.293 38.0993C18.9665 39.5358 19.9691 40.9231 21.3442 40.9231H38.6562Z" fill="#1F2732" stroke="#D1B06B" stroke-width="3" stroke-miterlimit="10"/>
<path d="M50.0384 8.61538C50.0384 12.5451 46.8527 15.7308 42.923 15.7308C38.9933 15.7308 35.8076 12.5451 35.8076 8.61538C35.8076 4.68567 38.9933 1.5 42.923 1.5C46.8527 1.5 50.0384 4.68567 50.0384 8.61538Z" stroke="#D1B06B" stroke-width="3" stroke-miterlimit="10"/>
<path d="M24.1922 8.61538C24.1922 12.5451 21.0065 15.7308 17.0768 15.7308C13.1471 15.7308 9.96143 12.5451 9.96143 8.61538C9.96143 4.68567 13.1471 1.5 17.0768 1.5C21.0065 1.5 24.1922 4.68567 24.1922 8.61538Z" stroke="#D1B06B" stroke-width="3" stroke-miterlimit="10"/>
<path d="M34.9617 20.4615C34.9617 23.2017 32.7403 25.4231 30.0001 25.4231C27.2599 25.4231 25.0386 23.2017 25.0386 20.4615C25.0386 17.7214 27.2599 15.5 30.0001 15.5C32.7403 15.5 34.9617 17.7214 34.9617 20.4615Z" stroke="#D1B06B" stroke-width="3" stroke-miterlimit="10"/>
</svg>
