<?xml version="1.0" standalone="no"?>
<!DOCTYPE svg PUBLIC "-//W3C//DTD SVG 20010904//EN"
 "http://www.w3.org/TR/2001/REC-SVG-20010904/DTD/svg10.dtd">
<svg version="1.0" xmlns="http://www.w3.org/2000/svg"
 width="512.000000pt" height="512.000000pt" viewBox="0 0 512.000000 512.000000"
 preserveAspectRatio="xMidYMid meet">

<g transform="translate(0.000000,512.000000) scale(0.100000,-0.100000)"
fill="#D1B06B" stroke="none">
<path d="M3170 4970 l0 -150 -567 0 -568 -1 -205 -321 c-113 -176 -213 -333
-223 -349 l-19 -29 179 0 178 0 84 130 c46 72 87 130 91 130 4 0 45 -58 91
-130 l84 -130 178 0 c140 0 177 3 171 13 -5 6 -61 94 -126 195 -65 101 -118
185 -118 188 0 2 173 4 385 4 l385 0 0 -775 0 -775 -150 0 -150 0 0 -150 0
-150 450 0 450 0 0 150 0 150 -150 0 -150 0 0 775 0 775 385 0 c212 0 385 -2
385 -4 0 -3 -53 -87 -118 -188 -65 -101 -121 -189 -126 -195 -6 -10 31 -13
171 -13 l178 0 84 130 c46 72 87 130 91 130 4 0 45 -58 91 -130 l84 -130 178
0 179 0 -19 29 c-10 16 -110 173 -223 349 l-205 321 -567 1 -568 0 0 150 0
150 -150 0 -150 0 0 -150z"/>
<path d="M1520 3787 c0 -55 37 -184 72 -250 42 -81 164 -203 245 -245 80 -42
198 -72 283 -72 85 0 203 30 283 72 81 42 203 164 245 245 35 66 72 195 72
250 l0 33 -600 0 -600 0 0 -33z"/>
<path d="M3920 3787 c0 -55 37 -184 72 -250 42 -81 164 -203 245 -245 80 -42
198 -72 283 -72 85 0 203 30 283 72 81 42 203 164 245 245 35 66 72 195 72
250 l0 33 -600 0 -600 0 0 -33z"/>
<path d="M1625 2489 c-179 -26 -369 -107 -522 -224 -144 -109 -386 -308 -390
-320 -3 -9 1042 -1310 1052 -1310 2 0 28 21 59 48 l55 47 758 0 c417 0 809 5
870 10 262 21 311 47 973 515 294 207 545 386 556 397 12 10 34 42 50 71 25
44 29 63 29 127 0 64 -4 83 -30 129 -55 99 -143 147 -260 139 -76 -5 -34 17
-658 -341 -274 -157 -523 -296 -555 -309 -57 -23 -59 -23 -594 -26 l-538 -3 0
151 0 150 498 0 c560 0 554 -1 637 72 89 78 124 198 91 310 -21 73 -95 156
-168 189 l-53 24 -565 5 -565 5 -72 38 c-187 97 -439 137 -658 106z"/>
<path d="M172 1770 l-172 -141 0 -814 0 -815 668 0 669 0 159 136 c87 75 160
139 161 143 2 3 -283 359 -633 790 -349 431 -645 797 -657 813 l-23 28 -172
-140z"/>
</g>
</svg>
