<svg width="64" height="55" viewBox="0 0 64 55" fill="none" xmlns="http://www.w3.org/2000/svg">
<path d="M1.5 5C1.5 3.067 3.067 1.5 5 1.5H27.8358C29.7688 1.5 31.3358 3.067 31.3358 5V53.5H5C3.067 53.5 1.5 51.933 1.5 50V5Z" stroke="#BB9F64" stroke-width="3"/>
<path d="M31.873 27.9851C31.873 26.0521 33.44 24.4851 35.373 24.4851H58.2089C60.1419 24.4851 61.7089 26.0521 61.7089 27.9851V50C61.7089 51.933 60.1419 53.5 58.2089 53.5H31.873V27.9851Z" stroke="#BB9F64" stroke-width="3"/>
<rect x="6.56738" y="9.85083" width="7.38806" height="4.10448" rx="1" fill="#BB9F64"/>
<rect x="36.9404" y="31.1941" width="7.38806" height="4.10448" rx="1" fill="#BB9F64"/>
<rect x="6.56738" y="20.5225" width="7.38806" height="4.10448" rx="1" fill="#BB9F64"/>
<rect x="36.9404" y="41.0447" width="7.38806" height="4.10448" rx="1" fill="#BB9F64"/>
<rect x="6.56738" y="31.1941" width="7.38806" height="4.10448" rx="1" fill="#BB9F64"/>
<rect x="6.56738" y="41.8657" width="7.38806" height="4.10448" rx="1" fill="#BB9F64"/>
<rect x="18.8804" y="9.85083" width="7.38806" height="4.10448" rx="1" fill="#BB9F64"/>
<rect x="49.2539" y="31.1941" width="7.38806" height="4.10448" rx="1" fill="#BB9F64"/>
<rect x="18.8804" y="20.5225" width="7.38806" height="4.10448" rx="1" fill="#BB9F64"/>
<rect x="49.2539" y="41.0447" width="7.38806" height="4.10448" rx="1" fill="#BB9F64"/>
<rect x="18.8804" y="31.1941" width="7.38806" height="4.10448" rx="1" fill="#BB9F64"/>
<rect x="18.8804" y="41.8657" width="7.38806" height="4.10448" rx="1" fill="#BB9F64"/>
</svg>
